<svg id="Capa_1" enable-background="new 0 0 512 512" height="512" viewBox="0 0 512 512" width="512" xmlns="http://www.w3.org/2000/svg"><path d="m485.319 305.153v28.973c0 5.34-4.324 9.674-9.674 9.674h-94.444c-5.34 0-9.674-4.334-9.674-9.674v-28.973z" fill="#6d81d5"/><path d="m371.528 305.153h113.791v19.812h-113.791z" fill="#5169cd"/><path d="m485.319 305.153v28.973c0 5.34-4.324 9.674-9.674 9.674h-26.641c5.349 0 9.674-4.334 9.674-9.674v-28.973z" fill="#5169cd"/><g fill="#bcea73"><path d="m428.408 388.338c-.007 0-.014 0-.022 0-4.267-.012-7.716-3.481-7.704-7.748l.029-10.236c.012-4.26 3.469-7.704 7.726-7.704h.022c4.267.012 7.716 3.481 7.704 7.749l-.029 10.236c-.011 4.259-3.468 7.703-7.726 7.703z"/><path d="m457.974 382.622c-2.68 0-5.286-1.397-6.713-3.89l-5.081-8.88c-2.119-3.704-.835-8.424 2.869-10.543 3.702-2.119 8.422-.837 10.543 2.868l5.081 8.88c2.119 3.704.835 8.424-2.868 10.543-1.211.693-2.529 1.022-3.831 1.022z"/><path d="m398.876 382.45c-1.316 0-2.649-.337-3.869-1.044-3.691-2.141-4.949-6.869-2.808-10.56l5.133-8.85c2.142-3.691 6.869-4.948 10.56-2.807s4.949 6.869 2.808 10.56l-5.133 8.85c-1.433 2.471-4.026 3.851-6.691 3.851z"/></g><path d="m132.999 305.153v28.973c0 5.34-4.324 9.674-9.674 9.674h-94.443c-5.34 0-9.674-4.334-9.674-9.674v-28.973z" fill="#6d81d5"/><path d="m19.208 305.153h113.791v19.812h-113.791z" fill="#5169cd"/><path d="m132.999 305.153v28.973c0 5.34-4.324 9.674-9.674 9.674h-26.641c5.349 0 9.674-4.334 9.674-9.674v-28.973z" fill="#5169cd"/><path d="m76.089 388.338c-.008 0-.016 0-.024 0-4.267-.013-7.715-3.482-7.703-7.749l.03-10.236c.013-4.26 3.47-7.704 7.725-7.704h.024c4.267.013 7.715 3.482 7.703 7.749l-.03 10.236c-.013 4.26-3.47 7.704-7.725 7.704z" fill="#bcea73"/><path d="m105.653 382.622c-2.68 0-5.286-1.397-6.713-3.89l-5.081-8.88c-2.119-3.704-.835-8.424 2.868-10.543 3.705-2.119 8.424-.837 10.544 2.868l5.081 8.88c2.119 3.704.835 8.424-2.869 10.543-1.21.693-2.528 1.022-3.83 1.022z" fill="#bcea73"/><path d="m46.556 382.45c-1.316 0-2.649-.337-3.869-1.044-3.691-2.141-4.949-6.869-2.808-10.56l5.133-8.85c2.142-3.691 6.87-4.948 10.56-2.807 3.691 2.141 4.949 6.869 2.808 10.56l-5.133 8.85c-1.433 2.471-4.026 3.851-6.691 3.851z" fill="#bcea73"/><path d="m108.133 160.285c-.549 0-1.107-.059-1.666-.182l-96.279-21.168c-4.168-.917-6.804-5.038-5.887-9.205.916-4.168 5.033-6.803 9.205-5.887l96.279 21.168c4.168.917 6.804 5.038 5.887 9.205-.794 3.609-3.99 6.069-7.539 6.069z" fill="#b7c4ce"/><path d="m504.933 275.832h-59.06c-3.832 0-7.335 2.122-9.117 5.501l-13.392 25.425h-100.722v-103.389c0-2.843-2.308-5.151-5.151-5.151h-45.915c-2.843 0-5.151 2.308-5.151 5.151v103.389h-256.123c-5.687 0-10.302-4.605-10.302-10.302v-23.643c15.906 1.514 31.08-8.54 35.5-24.467 4.523-16.267-3.739-33.069-18.739-39.703l15.999-15.298c3.4-3.255 6.057-7.129 7.87-11.373 1.803-4.213 2.771-8.777 2.782-13.454.041-13.619 10.714-24.766 24.333-24.766h286.627c12.445 35.078 47.234 96.208 142.67 129.566 2.72.948 5.346 1.782 7.891 2.514z" fill="#c5d3dd"/><path d="m512 238.436v46.678c-6.645-.927-14-2.771-22.149-5.614-101.318-35.418-134.294-102.132-144.73-135.747h44.936c26.939 0 51.777 14.526 64.994 38.003l3.214 5.718c10.745 19.089 27.619 33.986 47.893 42.268 1.762.721 3.224 1.947 4.244 3.461 1.021 1.514 1.598 3.327 1.598 5.233z" fill="#64b9fc"/><path d="m512 238.436v46.678c-6.645-.927-14-2.771-22.149-5.614-5.285-1.844-10.384-3.781-15.308-5.79v-35.273c0-1.906-.577-3.719-1.597-5.233s-2.483-2.74-4.244-3.461c-20.274-8.283-37.148-23.179-47.893-42.268l-3.214-5.718c-13.217-23.478-38.055-38.003-64.994-38.003h37.457c26.939 0 51.777 14.526 64.994 38.003l3.214 5.718c10.745 19.089 27.619 33.986 47.893 42.268 1.762.721 3.224 1.947 4.244 3.461 1.02 1.513 1.597 3.326 1.597 5.232z" fill="#31a7fb"/><path d="m469.083 202.926-44.329 44.329c-10.683-7.263-20.017-14.886-28.176-22.633l52.22-52.22c2.308 2.936 4.389 6.057 6.253 9.354l3.214 5.718c3.112 5.521 6.738 10.692 10.818 15.452z" fill="#8dcafc"/><path d="m469.083 202.926-17.637 17.637c-10.024-6.706-18.729-15.226-25.641-25.167l22.993-22.994c2.308 2.936 4.389 6.057 6.253 9.354l3.214 5.718c3.112 5.521 6.738 10.692 10.818 15.452z" fill="#64b9fc"/><path d="m512 238.436v32.719l-11.59 11.59c-3.358-.876-6.871-1.957-10.559-3.245-19.398-6.779-36.293-14.711-51.004-23.334l41.795-41.794c7.613 6.356 16.205 11.569 25.518 15.37 1.762.721 3.224 1.947 4.244 3.461 1.019 1.514 1.596 3.327 1.596 5.233z" fill="#8dcafc"/><path d="m512 238.436v32.719l-11.59 11.59c-3.358-.876-6.871-1.957-10.559-3.245-5.285-1.844-10.384-3.781-15.308-5.79v-35.273c0-1.906-.577-3.719-1.597-5.233s-2.483-2.74-4.244-3.461c-.804-.33-1.607-.67-2.411-1.02l14.351-14.35c7.613 6.356 16.205 11.569 25.518 15.37 1.762.721 3.224 1.947 4.244 3.461 1.019 1.513 1.596 3.326 1.596 5.232z" fill="#64b9fc"/><path d="m442.5 286.134h-63.261c-4.268 0-7.726-3.459-7.726-7.726s3.459-7.726 7.726-7.726h63.261c4.268 0 7.726 3.459 7.726 7.726 0 4.266-3.458 7.726-7.726 7.726z" fill="#b7c4ce"/><path d="m512 270.681v25.775c0 5.697-4.615 10.302-10.302 10.302h-84.413l16.099-30.575c1.782-3.384 5.291-5.502 9.115-5.502z" fill="#fb54b6"/><path d="m512 270.681v25.775c0 5.697-4.615 10.302-10.302 10.302h-36.221c5.686 0 10.302-4.605 10.302-10.302v-25.775z" fill="#fb33a8"/><path d="m44.545 239.198c0 22.262-18.049 40.301-40.301 40.301-1.432 0-2.854-.072-4.244-.216v-37.066c0-11.198 4.584-21.912 12.671-29.659l9.756-9.333c13.125 6.644 22.118 20.253 22.118 35.973z" fill="#fb54b6"/><path d="m330.857 306.761h-72.639v-107.43c0-5.69 4.612-10.302 10.302-10.302h52.036c5.69 0 10.302 4.612 10.302 10.302v107.43z" fill="#7a8d98"/><path d="m225.362 194.18v41.218c0 2.845-2.306 5.151-5.151 5.151h-139.342c-2.845 0-5.151-2.306-5.151-5.151v-41.218c0-2.845 2.306-5.151 5.151-5.151h139.342c2.845 0 5.151 2.306 5.151 5.151z" fill="#64b9fc"/><path d="m225.362 194.18v41.218c0 2.845-2.306 5.151-5.151 5.151h-71.134l51.519-51.519h19.615c2.845-.001 5.151 2.305 5.151 5.15z" fill="#8dcafc"/><path d="m180.416 189.029-51.52 51.519h-35.057l51.52-51.519z" fill="#8dcafc"/><path d="m173.586 286.134h-97.868c-4.268 0-7.726-3.459-7.726-7.726s3.459-7.726 7.726-7.726h97.867c4.268 0 7.726 3.459 7.726 7.726.001 4.266-3.458 7.726-7.725 7.726z" fill="#b7c4ce"/><path d="m307.663 251.198c-.013 0-.025 0-.037 0l-.107-.001c-4.268-.02-7.71-3.495-7.69-7.763.02-4.255 3.476-7.69 7.725-7.69h.037l.107.001c4.268.02 7.71 3.495 7.69 7.763-.02 4.255-3.476 7.69-7.725 7.69z" fill="#596d76"/></svg>