<svg id="Capa_1" enable-background="new 0 0 512 512" height="512" viewBox="0 0 512 512" width="512" xmlns="http://www.w3.org/2000/svg"><path d="m164.231 86.968h-63.706l5.481-53.641c.268-2.627 2.483-4.626 5.12-4.626h42.505c2.637 0 4.852 1.999 5.12 4.626z" fill="#7a8d98"/><path d="m189.038 329.699h-113.32l22.129-216.523h69.063z" fill="#7a8d98"/><path d="m164.231 86.968h-27.938l-5.481-53.641c-.268-2.627-2.472-4.626-5.12-4.626h27.938c2.637 0 4.852 1.999 5.12 4.626z" fill="#596d76"/><path d="m189.038 329.699h-27.938l-22.129-216.523h27.939z" fill="#596d76"/><path d="m167.93 123.144h-71.103l4.522-44.298h62.058z" fill="#64b9fc"/><path d="m167.93 123.144h-27.939l-4.522-44.298h27.938z" fill="#31a7fb"/><path d="m283.815 83.825c-4.268 0-7.726-3.459-7.726-7.726v-61.811c0-4.267 3.459-7.726 7.726-7.726s7.726 3.459 7.726 7.726v61.811c0 4.267-3.459 7.726-7.726 7.726z" fill="#c5d3dd"/><path d="m305.792 83.825c-4.268 0-7.726-3.459-7.726-7.726v-29.532c0-4.267 3.459-7.726 7.726-7.726s7.726 3.459 7.726 7.726v29.532c0 4.267-3.459 7.726-7.726 7.726z" fill="#a0acb9"/><path d="m327.827 71.978h-53.859c-5.69 0-10.302 4.612-10.302 10.302v264.24h117.03s23.884-164.538-44.203-269.827c-1.901-2.939-5.165-4.715-8.666-4.715z" fill="#64b9fc"/><path d="m380.693 346.522h-32.729s23.89-164.54-44.205-269.825c-1.895-2.946-5.161-4.718-8.664-4.718h32.729c3.503 0 6.768 1.772 8.674 4.718 68.085 105.285 44.195 269.825 44.195 269.825z" fill="#31a7fb"/><path d="m357.947 118.519-94.282 94.282v-41.29l81.044-81.044c4.986 9.055 9.374 18.45 13.238 28.052z" fill="#8dcafc"/><path d="m371.493 160.704-107.829 107.84v-34.14l100.103-100.103c2.957 8.715 5.512 17.544 7.726 26.403z" fill="#8dcafc"/><path d="m357.947 118.522-24.199 24.199c-3.152-10.24-6.81-20.367-11.054-30.236l22.015-22.015c4.986 9.056 9.374 18.451 13.238 28.052z" fill="#64b9fc"/><path d="m371.493 160.708-27.001 27.001c-1.648-9.344-3.636-18.749-6.016-28.114l25.291-25.291c2.957 8.716 5.512 17.545 7.726 26.404z" fill="#64b9fc"/><path d="m29.792 323.958 33.627-33.627c1.932-1.932 4.552-3.017 7.284-3.017h89.994v-56.921c0-2.732 1.085-5.353 3.017-7.284l40.892-40.892c1.932-1.932 4.552-3.017 7.284-3.017h61.588c2.732 0 5.353 1.085 7.284 3.017l106.608 106.608h48.237c2.732 0 5.353 1.085 7.284 3.017l39.311 39.311c1.932 1.932 3.017 4.552 3.017 7.284v51.174h-458.445v-58.368c0-2.733 1.086-5.353 3.018-7.285z" fill="#fb54b6"/><path d="m485.226 338.434v51.176h-30.576v-55.444l-45.338-45.338h26.299c2.732 0 5.352 1.085 7.284 3.017l39.313 39.304c1.932 1.931 3.018 4.552 3.018 7.285z" fill="#fb33a8"/><path d="m387.369 288.827h-30.566l-109.621-109.632h26.298c2.732 0 5.353 1.086 7.285 3.018z" fill="#fb33a8"/><path d="m406.831 188.173c-4.268 0-7.726-3.459-7.726-7.726v-50.698c0-4.267 3.459-7.726 7.726-7.726s7.726 3.459 7.726 7.726v50.698c0 4.266-3.458 7.726-7.726 7.726z" fill="#c5d3dd"/><path d="m336.539 389.61v-179.278c0-2.845 2.306-5.151 5.151-5.151h23.591l25.196-25.196c.966-.966 2.276-1.509 3.642-1.509h22.671c2.845 0 5.151 2.306 5.151 5.151v205.979z" fill="#bcea73"/><g fill="#99d53b"><path d="m421.941 183.632v205.974h-22.901v-205.974c0-2.812-2.256-5.099-5.058-5.141.041-.01.093-.01.134-.01h22.674c2.843 0 5.151 2.307 5.151 5.151z"/><path d="m375.408 236.643c0 4.265-3.461 7.726-7.726 7.726h-31.142v-15.453h31.142c4.265.001 7.726 3.452 7.726 7.727z"/><path d="m375.408 265.272c0 4.265-3.461 7.726-7.726 7.726h-31.142v-15.453h31.142c4.265 0 7.726 3.451 7.726 7.727z"/><path d="m375.408 293.89c0 4.275-3.461 7.726-7.726 7.726h-31.142v-15.453h31.142c4.265.001 7.726 3.462 7.726 7.727z"/><path d="m375.408 322.519c0 4.275-3.461 7.726-7.726 7.726h-31.142v-15.453h31.142c4.265.001 7.726 3.462 7.726 7.727z"/><path d="m375.408 351.148c0 4.265-3.461 7.726-7.726 7.726h-31.142v-15.453h31.142c4.265 0 7.726 3.462 7.726 7.727z"/></g><path d="m291.482 389.606h-84.587v-288.448c0-4.178 4.713-6.618 8.124-4.206l74.285 52.519c1.366.965 2.177 2.534 2.177 4.206v235.929z" fill="#c5d3dd"/><path d="m237.457 389.18c-4.268 0-7.726-3.459-7.726-7.726v-226.826c0-4.267 3.459-7.726 7.726-7.726s7.726 3.459 7.726 7.726v226.825c0 4.267-3.459 7.727-7.726 7.727z" fill="#a0acb9"/><path d="m291.479 153.679v235.932h-27.815v-229.751c0-1.669-.814-3.245-2.174-4.203l-54.6-38.601v-15.896c0-4.182 4.718-6.624 8.128-4.203l74.286 52.519c1.361.958 2.175 2.534 2.175 4.203z" fill="#a0acb9"/><path d="m173.06 389.606h-59.064v-138.636c0-2.845 2.306-5.151 5.151-5.151h48.762c2.845 0 5.151 2.306 5.151 5.151z" fill="#64b9fc"/><path d="m173.06 250.969v138.642h-26.599v-138.642c0-2.843-2.308-5.151-5.151-5.151h26.599c2.844 0 5.151 2.308 5.151 5.151z" fill="#31a7fb"/><path d="m321.797 410.443v33.507c0 6.176-5.001 11.188-11.188 11.188h-109.224c-6.176 0-11.188-5.012-11.188-11.188v-33.507z" fill="#7a8d98"/><path d="m190.197 410.443h131.6v22.912h-131.6z" fill="#596d76"/><path d="m321.797 410.443v33.507c0 6.176-5.001 11.188-11.188 11.188h-30.811c6.187 0 11.188-5.012 11.188-11.188v-33.507z" fill="#596d76"/><path d="m255.979 505.438c-.007 0-.014 0-.022 0-4.268-.013-7.716-3.481-7.704-7.749l.034-11.838c.012-4.26 3.47-7.704 7.726-7.704h.022c4.268.013 7.716 3.481 7.704 7.749l-.034 11.838c-.012 4.259-3.47 7.704-7.726 7.704z" fill="#bcea73"/><path d="m290.17 498.827c-2.68 0-5.286-1.397-6.713-3.89l-5.876-10.269c-2.119-3.704-.835-8.424 2.868-10.543 3.705-2.119 8.424-.836 10.544 2.868l5.876 10.269c2.119 3.704.835 8.424-2.869 10.543-1.21.692-2.528 1.022-3.83 1.022z" fill="#bcea73"/><path d="m221.826 498.628c-1.316 0-2.65-.337-3.869-1.044-3.691-2.141-4.949-6.869-2.807-10.56l5.937-10.235c2.141-3.691 6.872-4.947 10.559-2.807 3.691 2.141 4.948 6.869 2.807 10.56l-5.937 10.235c-1.433 2.471-4.025 3.851-6.69 3.851z" fill="#bcea73"/><path d="m10.776 380.714h86.051v32.502h-75.1c-12.002 0-21.727-9.725-21.727-21.727 0-5.944 4.821-10.775 10.776-10.775z" fill="#6d81d5"/><path d="m512 391.489c0 12.001-9.735 21.726-21.727 21.726h-364.581v-32.502h375.522c2.977 0 5.676 1.205 7.623 3.163 1.958 1.947 3.163 4.647 3.163 7.613z" fill="#6d81d5"/><path d="m512 391.491c0 12.003-9.733 21.725-21.725 21.725h-31.198c11.992 0 21.725-9.722 21.725-21.725 0-2.976-1.206-5.67-3.161-7.626-1.944-1.944-4.649-3.15-7.626-3.15h31.198c2.976 0 5.67 1.206 7.626 3.15 1.955 1.956 3.161 4.65 3.161 7.626z" fill="#5169cd"/><path d="m88.35 380.715h45.623v32.504h-45.623z" fill="#bcea73"/><path d="m114 266.343h59.06v15.453h-59.06z" fill="#31a7fb"/><path d="m114 295.703h59.06v15.453h-59.06z" fill="#31a7fb"/><path d="m114 325.063h59.06v15.453h-59.06z" fill="#31a7fb"/></svg>