<svg id="Layer_3" height="512" viewBox="0 0 64 64" width="512" xmlns="http://www.w3.org/2000/svg" data-name="Layer 3"><path d="m5 30h51l6-2v-7l-2-2-18-2-7-7h-15l-14 7h-2v6h-2v1.394a6.737 6.737 0 0 0 3 5.606z" fill="#9d9e9d"/><path d="m42 17-7-7h-15l-13.465 6.733a19.986 19.986 0 0 0 17.465 10.267h38v-6l-2-2z" fill="#bcbdbc"/><path d="m42 17-2 9h-12a7.989 7.989 0 0 1 -8-8v-8h15z" fill="#6baff2"/><path d="m25.314 10-5.314 5.314v2.686c0 .1.011.2.015.3l8.3-8.3z" fill="#abd9ff"/><path d="m42 17-2.657-2.657-11.643 11.642c.1 0 .2.015.3.015h5.314l8.6-8.6z" fill="#abd9ff"/><path d="m35.5 10.5-13.16 13.16a8.072 8.072 0 0 0 2.86 1.826l12.643-12.643z" fill="#abd9ff"/><path d="m56 30a4 4 0 0 1 -4 4h-5a4 4 0 0 1 -4-4" fill="#747574"/><path d="m18 30a4 4 0 0 1 -4 4h-5a4 4 0 0 1 -4-4" fill="#747574"/><g fill="#fce95f"><path d="m5 39h2v6h-2z"/><path d="m15 37h2v7h-2z"/><path d="m12 43h2v8h-2z"/><path d="m8 48h2v6h-2z"/><path d="m43 39h2v6h-2z"/><path d="m53 37h2v7h-2z"/><path d="m50 43h2v8h-2z"/><path d="m46 48h2v6h-2z"/></g><path d="m10 22h4a2 2 0 0 1 2 2 2 2 0 0 1 -2 2h-4a0 0 0 0 1 0 0v-4a0 0 0 0 1 0 0z" fill="#37c"/><path d="m15.629 25.154a2 2 0 0 0 -1.629-3.154h-3.208a19.971 19.971 0 0 0 4.837 3.154z" fill="#3e88de"/><path d="m46.186 22.419-5.415 7.581h2.458l4.286-6h14.485v-2h-15a1 1 0 0 0 -.814.419z" fill="#37c"/><path d="m46.186 22.419-3.272 4.581h2.458l2.143-3h14.485v-2h-15a1 1 0 0 0 -.814.419z" fill="#3e88de"/><path d="m9 34h5a3.992 3.992 0 0 0 3.859-3h-12.718a3.992 3.992 0 0 0 3.859 3z" fill="#9d9e9d"/><path d="m47 34h5a3.992 3.992 0 0 0 3.859-3h-12.718a3.992 3.992 0 0 0 3.859 3z" fill="#9d9e9d"/></svg>